<?xml version="1.0" standalone="no"?>
<!DOCTYPE svg PUBLIC "-//W3C//DTD SVG 20010904//EN"
 "http://www.w3.org/TR/2001/REC-SVG-20010904/DTD/svg10.dtd">
<svg version="1.0" xmlns="http://www.w3.org/2000/svg"
 width="920.000000pt" height="920.000000pt" viewBox="0 0 920.000000 920.000000"
 preserveAspectRatio="xMidYMid meet">
<metadata>
Created by potrace 1.11, written by Peter Selinger 2001-2013
</metadata>
<g transform="translate(0.000000,920.000000) scale(0.100000,-0.100000)"
fill="#000000" stroke="none">
<path d="M6955 6619 c-22 -5 -461 -8 -975 -8 l-935 0 -33 -38 c-19 -20 -45
-58 -58 -84 -13 -26 -28 -50 -33 -53 -5 -3 -35 -50 -67 -103 -57 -97 -107
-172 -151 -226 l-22 -28 -41 37 c-22 20 -40 40 -40 45 0 4 -20 36 -44 71 -24
35 -53 79 -64 99 -34 60 -44 78 -112 181 l-66 98 -968 0 c-532 0 -972 -2 -977
-6 -5 -3 -9 -228 -9 -539 l0 -533 73 -6 c39 -3 87 -7 106 -9 56 -4 58 -18 27
-183 -15 -82 -32 -174 -37 -204 -6 -30 -17 -80 -24 -110 -8 -30 -23 -104 -34
-165 -11 -60 -34 -175 -51 -255 -17 -80 -36 -178 -42 -217 l-11 -73 -121 -2
c-67 -2 -145 -2 -173 -2 -43 1 -54 -2 -59 -18 -8 -27 5 -1051 14 -1060 4 -4
410 -8 902 -8 1004 0 911 -8 926 78 4 26 9 52 11 57 1 6 7 34 12 63 6 29 14
67 20 85 6 17 16 52 23 76 7 24 21 49 30 55 23 14 5 37 243 -327 33 -51 66
-92 73 -91 6 1 193 2 415 2 l403 2 56 78 c30 42 85 124 121 182 92 144 89 140
118 156 25 13 27 12 38 -14 10 -26 53 -226 73 -342 5 -30 10 -56 12 -58 7 -6
1811 -1 1817 6 4 4 9 242 13 528 l6 521 -36 6 c-20 3 -91 11 -157 17 -67 6
-136 13 -153 16 l-30 4 -23 128 c-13 70 -41 217 -62 327 -21 110 -49 263 -63
340 -14 77 -36 198 -50 270 -18 97 -22 133 -13 143 9 11 35 12 122 7 l112 -7
6 93 c7 91 11 1000 5 1003 -2 1 -21 -1 -43 -5z m-2645 -241 c40 -62 93 -144
118 -183 24 -38 53 -82 63 -97 11 -15 19 -30 19 -33 0 -3 5 -11 10 -18 6 -7
42 -60 81 -119 39 -60 74 -108 78 -108 12 0 331 482 331 501 0 5 3 9 8 9 4 0
27 34 52 75 l45 75 872 0 873 0 0 -217 c0 -120 3 -302 7 -404 l6 -187 -121 -3
c-80 -3 -125 -8 -134 -17 -18 -18 -13 -70 27 -268 37 -180 51 -252 79 -399 8
-44 20 -102 26 -130 26 -127 63 -317 80 -420 5 -33 14 -76 20 -95 5 -19 10
-46 10 -60 0 -14 5 -42 11 -63 l10 -37 137 0 c75 0 147 -3 160 -6 l22 -6 0
-402 0 -401 -698 -3 c-383 -2 -738 -5 -788 -8 l-91 -4 -12 43 c-17 65 -39 183
-51 272 -5 44 -14 109 -20 145 -6 36 -16 103 -23 149 -7 47 -18 86 -24 88 -7
3 -48 -50 -92 -119 -95 -147 -180 -279 -291 -450 l-83 -128 -341 0 c-188 0
-345 4 -351 8 -10 7 -137 197 -160 237 -6 11 -32 54 -59 95 -97 150 -114 177
-177 273 -34 53 -66 97 -71 97 -4 0 -8 -10 -8 -22 0 -12 -4 -35 -10 -52 -5
-17 -21 -112 -35 -211 -47 -327 -56 -380 -71 -391 -23 -18 -265 -25 -879 -24
-665 0 -684 1 -699 27 -7 12 -10 152 -11 403 l0 385 165 10 165 10 8 40 c4 22
14 72 21 110 30 152 38 194 56 285 11 52 24 122 29 155 6 33 22 116 35 185 32
155 50 248 77 390 13 74 38 202 48 248 5 25 5 45 -1 48 -5 3 -66 9 -136 12
l-127 7 -3 365 c-2 201 0 384 3 408 l6 42 868 0 868 0 73 -112z"/>
<path d="M2617 6364 c-3 -3 -6 -138 -7 -299 0 -230 2 -294 12 -297 7 -3 76 -6
153 -7 77 -1 141 -3 142 -5 3 -2 -46 -250 -77 -391 -11 -49 -25 -117 -31 -150
-6 -33 -17 -89 -24 -125 -7 -36 -20 -101 -29 -145 -9 -44 -21 -102 -27 -130
-6 -27 -19 -97 -30 -155 -12 -58 -25 -127 -31 -155 -5 -27 -16 -81 -23 -120
-8 -38 -21 -104 -30 -145 -8 -41 -18 -94 -22 -117 -5 -40 -8 -44 -46 -54 -22
-6 -93 -9 -156 -8 l-116 4 -3 -293 -2 -292 697 2 698 3 12 105 c6 58 16 134
22 170 6 36 18 110 26 165 9 55 23 141 31 190 8 50 19 127 26 173 6 45 15 82
19 82 4 0 20 -20 36 -45 15 -25 45 -69 66 -98 32 -43 79 -116 150 -232 6 -11
26 -40 43 -65 47 -69 196 -305 228 -363 53 -93 24 -85 356 -88 l294 -2 15 24
c8 13 34 54 58 90 24 37 43 71 43 77 0 6 4 12 8 14 5 2 42 55 83 118 40 63 76
117 79 120 3 3 17 23 30 45 12 22 49 78 80 125 32 47 76 115 99 152 40 67 88
128 101 128 3 0 11 -44 17 -97 15 -132 50 -371 68 -463 12 -63 21 -125 30
-200 3 -28 16 -105 21 -120 3 -13 87 -15 690 -13 377 1 689 4 692 7 7 7 4 564
-2 575 -3 4 -70 9 -148 10 -112 1 -145 5 -154 16 -6 8 -21 68 -33 132 -23 125
-31 167 -55 278 -9 39 -25 120 -36 180 -11 61 -25 124 -30 140 -5 17 -12 48
-15 70 -12 77 -66 350 -75 385 -5 19 -23 109 -40 200 -17 91 -35 184 -40 207
-21 87 -29 82 138 85 l147 3 3 303 2 302 -784 0 -783 0 -53 -82 c-79 -123
-103 -161 -114 -183 -6 -11 -38 -60 -70 -110 -33 -49 -84 -128 -114 -175 -92
-142 -145 -220 -151 -220 -3 0 -17 17 -31 38 -14 20 -28 42 -33 47 -14 19
-147 226 -147 229 0 3 -25 41 -55 86 -30 45 -55 84 -55 86 0 3 -8 17 -19 32
-44 64 -141 223 -141 231 0 5 -7 12 -16 15 -20 8 -1559 8 -1567 0z m2269 -984
c86 -12 165 -25 175 -30 10 -6 28 -10 40 -10 27 0 200 -46 244 -65 17 -7 41
-16 55 -20 14 -4 59 -23 100 -42 41 -19 91 -42 110 -51 81 -37 226 -130 267
-171 59 -59 57 -81 -10 -145 -100 -96 -231 -175 -392 -241 -129 -52 -254 -81
-500 -116 -114 -16 -550 -17 -620 -1 -27 6 -90 19 -140 28 -115 21 -199 44
-304 83 -84 32 -232 104 -254 125 -7 6 -35 27 -62 46 -87 60 -165 132 -165
150 0 25 199 210 225 210 4 0 21 11 39 25 28 21 67 40 221 110 27 12 157 52
270 83 36 10 102 20 285 41 119 15 257 11 416 -9z"/>
<path d="M4577 5320 c-58 -15 -138 -59 -180 -99 -68 -63 -117 -182 -117 -282
0 -156 124 -322 277 -369 270 -83 534 113 522 389 -4 67 -10 89 -43 155 -69
135 -179 204 -335 211 -47 3 -103 0 -124 -5z"/>
</g>
</svg>
